<svg xmlns="http://www.w3.org/2000/svg" viewBox="0 0 24 24" fill="none" stroke="currentColor" stroke-width="1.8" stroke-linecap="round" stroke-linejoin="round">
  <circle cx="12" cy="12" r="3.2" />
  <path d="M19.4 12a7.4 7.4 0 0 0-.08-1.04l2.01-1.57-1.9-3.3-2.45.73a7.34 7.34 0 0 0-1.8-1.04l-.37-2.52h-3.8l-.37 2.52a7.34 7.34 0 0 0-1.8 1.04l-2.45-.73-1.9 3.3 2.01 1.57a7.4 7.4 0 0 0 0 2.08l-2.01 1.57 1.9 3.3 2.45-.73c.55.43 1.16.78 1.8 1.04l.37 2.52h3.8l.37-2.52c.64-.26 1.25-.61 1.8-1.04l2.45.73 1.9-3.3-2.01-1.57c.05-.34.08-.69.08-1.04Z" />
</svg>
